# Blender v2.70 (sub 0) OBJ File: 'mushroom.blend'
# www.blender.org
mtllib mushroom.mtl
o mushroom_Cylinder
v 0.000000 0.000000 0.000000
v 0.000000 0.000000 4.825871
v 0.000000 1.149327 1.825872
v 0.000000 0.917959 4.825871
v 0.675557 0.929825 1.825872
v 0.539563 0.742645 4.825871
v 1.093075 0.355162 1.825872
v 0.873031 0.283665 4.825871
v 1.093075 -0.355162 1.825872
v 0.873031 -0.283665 4.825871
v 0.675557 -0.929825 1.825872
v 0.539563 -0.742645 4.825871
v -0.000000 -1.149327 1.825872
v -0.000000 -0.917959 4.825871
v -0.675558 -0.929825 1.825872
v -0.539563 -0.742644 4.825871
v -1.093075 -0.355162 1.825872
v -0.873031 -0.283665 4.825871
v -1.093075 0.355162 1.825872
v -0.873031 0.283665 4.825871
v -0.675557 0.929825 1.825872
v -0.539563 0.742645 4.825871
v 0.000000 1.500000 4.411367
v 0.881678 1.213526 4.411367
v 1.426585 0.463525 4.411367
v 1.426585 -0.463526 4.411367
v 0.881678 -1.213526 4.411367
v -0.000000 -1.500000 4.411367
v -0.881678 -1.213525 4.411367
v -1.426585 -0.463526 4.411367
v -1.426585 0.463526 4.411367
v -0.881677 1.213526 4.411367
v 1.339665 1.843890 1.909338
v 2.167623 0.704303 1.909338
v 2.167623 -0.704304 1.909338
v 1.339665 -1.843890 1.909338
v -0.000000 -2.279174 1.909338
v -1.339665 -1.843890 1.909338
v -2.167623 -0.704304 1.909338
v -2.167623 0.704304 1.909338
v -1.339664 1.843891 1.909338
v -0.000000 2.279174 1.909338
v 1.163345 1.601207 3.339613
v 1.882332 0.611607 3.339613
v 1.882332 -0.611607 3.339613
v 1.163345 -1.601207 3.339613
v -0.000000 -1.979201 3.339613
v -1.163345 -1.601207 3.339613
v -1.882332 -0.611607 3.339613
v -1.882332 0.611607 3.339613
v -1.163345 1.601208 3.339613
v -0.000000 1.979201 3.339613
v 0.000000 1.149327 0.187819
v 0.675557 0.929825 0.187819
v 1.093075 0.355162 0.187819
v 1.093075 -0.355162 0.187819
v 0.675557 -0.929825 0.187819
v -0.000000 -1.149327 0.187819
v -0.675558 -0.929825 0.187819
v -1.093075 -0.355162 0.187819
v -1.093075 0.355162 0.187819
v -0.675557 0.929825 0.187819
v 0.000000 0.977820 0.000000
v 0.574748 0.791073 0.000000
v 0.929962 0.302163 0.000000
v 0.929962 -0.302163 0.000000
v 0.574748 -0.791073 0.000000
v -0.000000 -0.977820 0.000000
v -0.574748 -0.791073 0.000000
v -0.929962 -0.302163 0.000000
v -0.929962 0.302163 0.000000
v -0.574748 0.791073 0.000000
vt 0.760145 0.955900
vt 0.759415 0.636963
vt 0.798499 0.634899
vt 0.253600 0.249933
vt 0.277231 0.229080
vt 0.284975 0.246953
vt 0.297297 0.212921
vt 0.719585 0.955919
vt 0.720292 0.636982
vt 0.260461 0.219173
vt 0.267196 0.194305
vt 0.679364 0.953885
vt 0.681206 0.634948
vt 0.241070 0.221015
vt 0.231902 0.196937
vt 0.639987 0.950575
vt 0.642213 0.631638
vt 0.226465 0.233902
vt 0.204896 0.219812
vt 0.601555 0.947254
vt 0.603317 0.628316
vt 0.222225 0.252913
vt 0.196493 0.254192
vt 0.563816 0.945189
vt 0.564488 0.626252
vt 0.229969 0.270786
vt 0.209903 0.286945
vt 0.915863 0.945171
vt 0.915214 0.626233
vt 0.954021 0.626252
vt 0.246739 0.280693
vt 0.240003 0.305561
vt 0.878133 0.947205
vt 0.876384 0.628267
vt 0.266130 0.278852
vt 0.275297 0.302929
vt 0.839715 0.950514
vt 0.837490 0.631577
vt 0.280734 0.265964
vt 0.302304 0.280054
vt 0.800355 0.953836
vt 0.310707 0.245674
vt 0.342781 0.180402
vt 0.284879 0.141262
vt 0.215030 0.143631
vt 0.140581 0.253766
vt 0.164419 0.319464
vt 0.222320 0.358604
vt 0.347287 0.313263
vt 0.366618 0.246100
vt 0.799368 0.973322
vt 0.759754 0.977416
vt 0.719963 0.977453
vt 0.680344 0.973420
vt 0.641160 0.966856
vt 0.602474 0.960270
vt 0.564164 0.956176
vt 0.953698 0.956176
vt 0.915526 0.956139
vt 0.877221 0.960172
vt 0.838544 0.966736
vt 0.440344 0.114255
vt 0.324930 0.030402
vt 0.182270 0.030402
vt 0.159913 0.186603
vt 0.066856 0.114255
vt 0.066855 0.385611
vt 0.292170 0.356236
vt 0.324930 0.469464
vt 0.440344 0.385611
vt 0.759334 0.599594
vt 0.798291 0.597838
vt 0.720369 0.599610
vt 0.681412 0.597880
vt 0.642468 0.595064
vt 0.603524 0.592238
vt 0.564568 0.590482
vt 0.915136 0.590466
vt 0.954101 0.590482
vt 0.876179 0.592197
vt 0.837235 0.595013
vt 0.934290 0.400271
vt 0.544757 0.400271
vt 0.953350 0.945189
vt 0.484429 0.249933
vt 0.022771 0.249933
vt 0.182270 0.469464
vn 0.309017 0.951056 0.000000
vn 0.000001 0.000000 1.000000
vn 0.185222 0.570052 0.800459
vn 0.809017 0.587785 0.000000
vn 0.000000 0.000000 1.000000
vn 0.484915 0.352312 0.800459
vn 1.000000 -0.000000 0.000000
vn 0.599388 0.000000 0.800459
vn 0.809017 -0.587785 0.000000
vn 0.484915 -0.352311 0.800459
vn 0.309017 -0.951056 0.000000
vn 0.185221 -0.570052 0.800459
vn -0.309017 -0.951057 0.000000
vn -0.000001 0.000000 1.000000
vn -0.185222 -0.570052 0.800459
vn -0.809017 -0.587785 0.000000
vn -0.484915 -0.352311 0.800458
vn -1.000000 0.000000 0.000000
vn -0.599389 0.000000 0.800458
vn -0.809017 0.587785 0.000000
vn -0.484915 0.352312 0.800459
vn -0.309017 0.951057 0.000000
vn -0.185220 0.570052 0.800459
vn 0.284374 0.875213 0.391324
vn 0.744500 0.540911 0.391324
vn 0.920253 -0.000000 0.391324
vn 0.744501 -0.540911 0.391324
vn 0.284374 -0.875213 0.391324
vn -0.284374 -0.875213 0.391324
vn -0.744501 -0.540911 0.391324
vn -0.920253 0.000000 0.391324
vn -0.744500 0.540911 0.391324
vn -0.284374 0.875213 0.391324
vn 0.023931 0.073652 -0.996997
vn 0.062652 0.045520 -0.996997
vn 0.077442 0.000000 -0.996997
vn 0.062652 -0.045520 -0.996997
vn 0.023931 -0.073652 -0.996997
vn -0.023931 -0.073652 -0.996997
vn -0.062652 -0.045520 -0.996997
vn -0.077443 0.000000 -0.996997
vn -0.062653 0.045520 -0.996997
vn -0.023931 0.073652 -0.996997
vn 0.303047 0.932683 0.195612
vn 0.793388 0.576430 0.195612
vn 0.980681 0.000000 0.195612
vn 0.793388 -0.576430 0.195612
vn 0.303047 -0.932683 0.195612
vn -0.303047 -0.932683 0.195612
vn -0.793388 -0.576430 0.195612
vn -0.980681 0.000000 0.195612
vn -0.793388 0.576430 0.195612
vn -0.303047 0.932683 0.195612
vn 0.233314 0.718065 -0.655703
vn 0.610823 0.443789 -0.655703
vn 0.755019 -0.000000 -0.655703
vn 0.610823 -0.443789 -0.655703
vn 0.233313 -0.718065 -0.655704
vn -0.233314 -0.718065 -0.655703
vn -0.610823 -0.443788 -0.655704
vn -0.755019 0.000000 -0.655703
vn -0.610823 0.443789 -0.655703
vn -0.233314 0.718066 -0.655703
vn 0.000000 0.000000 -1.000000
vn 0.185221 0.570052 0.800459
vn 0.484915 0.352311 0.800459
vn 0.599388 0.000000 0.800458
vn 0.484915 -0.352312 0.800459
vn -0.309017 -0.951056 0.000000
vn -0.185221 -0.570052 0.800459
vn -0.484915 -0.352311 0.800459
vn -0.599388 0.000000 0.800459
vn -0.809017 0.587786 0.000000
vn 0.744500 -0.540911 0.391324
vn -0.744500 -0.540911 0.391324
vn 0.077443 -0.000000 -0.996997
vn -0.077442 0.000000 -0.996997
vn 0.303047 -0.932683 0.195613
vn -0.303047 0.932684 0.195612
vn 0.233314 0.718066 -0.655703
vn 0.233314 -0.718066 -0.655703
vn -0.610823 -0.443789 -0.655703
vn -0.233313 0.718065 -0.655704
usemtl mushroom
s off
f 5/1/1 54/2/1 53/3/1
f 2/4/2 6/5/2 4/6/2
f 4/6/3 6/5/3 24/7/3
f 7/8/4 55/9/4 54/2/4
f 2/4/5 8/10/5 6/5/5
f 6/5/6 8/10/6 25/11/6
f 9/12/7 56/13/7 55/9/7
f 2/4/5 10/14/5 8/10/5
f 8/10/8 10/14/8 26/15/8
f 11/16/9 57/17/9 56/13/9
f 2/4/5 12/18/5 10/14/5
f 10/14/10 12/18/10 27/19/10
f 13/20/11 58/21/11 57/17/11
f 2/4/2 14/22/2 12/18/2
f 12/18/12 14/22/12 28/23/12
f 15/24/13 59/25/13 58/21/13
f 2/4/14 16/26/14 14/22/14
f 14/22/15 16/26/15 29/27/15
f 17/28/16 60/29/16 59/30/16
f 2/4/5 18/31/5 16/26/5
f 16/26/17 18/31/17 30/32/17
f 19/33/18 61/34/18 60/29/18
f 2/4/2 20/35/2 18/31/2
f 18/31/19 20/35/19 31/36/19
f 21/37/20 62/38/20 61/34/20
f 2/4/5 22/39/5 20/35/5
f 20/35/21 22/39/21 32/40/21
f 3/41/22 53/3/22 62/38/22
f 2/4/14 4/6/14 22/39/14
f 22/39/23 4/6/23 23/42/23
f 23/42/24 24/7/24 43/43/24
f 24/7/25 25/11/25 44/44/25
f 25/11/26 26/15/26 45/45/26
f 45/45/27 26/15/27 27/19/27
f 27/19/28 28/23/28 47/46/28
f 28/23/29 29/27/29 48/47/29
f 29/27/30 30/32/30 49/48/30
f 49/48/31 30/32/31 31/36/31
f 31/36/32 32/40/32 51/49/32
f 32/40/33 23/42/33 52/50/33
f 3/41/34 42/51/34 33/52/34
f 5/1/35 33/52/35 34/53/35
f 34/53/36 35/54/36 9/12/36
f 35/54/37 36/55/37 11/16/37
f 36/55/38 37/56/38 13/20/38
f 13/20/39 37/56/39 38/57/39
f 38/58/40 39/59/40 17/28/40
f 39/59/41 40/60/41 19/33/41
f 40/60/42 41/61/42 21/37/42
f 41/61/43 42/51/43 3/41/43
f 52/50/44 43/43/44 33/62/44
f 43/43/45 44/44/45 34/63/45
f 44/44/46 45/45/46 35/64/46
f 45/45/47 46/65/47 36/66/47
f 36/66/48 46/65/48 47/46/48
f 47/46/49 48/47/49 38/67/49
f 38/67/50 48/47/50 49/48/50
f 49/48/51 50/68/51 40/69/51
f 40/69/52 50/68/52 51/49/52
f 41/70/53 51/49/53 52/50/53
f 54/2/54 64/71/54 63/72/54
f 55/9/55 65/73/55 64/71/55
f 56/13/56 66/74/56 65/73/56
f 57/17/57 67/75/57 66/74/57
f 58/21/58 68/76/58 67/75/58
f 59/25/59 69/77/59 68/76/59
f 60/29/60 70/78/60 69/79/60
f 61/34/61 71/80/61 70/78/61
f 62/38/62 72/81/62 71/80/62
f 53/3/63 63/72/63 72/81/63
f 1/82/64 63/72/64 64/71/64
f 1/82/64 64/71/64 65/73/64
f 1/83/64 65/73/64 66/74/64
f 1/83/64 66/74/64 67/75/64
f 1/83/64 67/75/64 68/76/64
f 1/83/64 68/76/64 69/77/64
f 1/82/64 69/79/64 70/78/64
f 1/82/64 70/78/64 71/80/64
f 1/82/64 71/80/64 72/81/64
f 1/82/64 72/81/64 63/72/64
f 3/41/1 5/1/1 53/3/1
f 23/42/65 4/6/65 24/7/65
f 5/1/4 7/8/4 54/2/4
f 24/7/66 6/5/66 25/11/66
f 7/8/7 9/12/7 55/9/7
f 25/11/67 8/10/67 26/15/67
f 9/12/9 11/16/9 56/13/9
f 26/15/68 10/14/68 27/19/68
f 11/16/11 13/20/11 57/17/11
f 27/19/12 12/18/12 28/23/12
f 13/20/69 15/24/69 58/21/69
f 28/23/70 14/22/70 29/27/70
f 15/84/16 17/28/16 59/30/16
f 29/27/71 16/26/71 30/32/71
f 17/28/18 19/33/18 60/29/18
f 30/32/72 18/31/72 31/36/72
f 19/33/73 21/37/73 61/34/73
f 31/36/21 20/35/21 32/40/21
f 21/37/22 3/41/22 62/38/22
f 32/40/23 22/39/23 23/42/23
f 52/50/24 23/42/24 43/43/24
f 43/43/25 24/7/25 44/44/25
f 44/44/26 25/11/26 45/45/26
f 46/65/74 45/45/74 27/19/74
f 46/65/28 27/19/28 47/46/28
f 47/46/29 28/23/29 48/47/29
f 48/47/75 29/27/75 49/48/75
f 50/68/31 49/48/31 31/36/31
f 50/68/32 31/36/32 51/49/32
f 51/49/33 32/40/33 52/50/33
f 5/1/34 3/41/34 33/52/34
f 7/8/35 5/1/35 34/53/35
f 7/8/76 34/53/76 9/12/76
f 9/12/37 35/54/37 11/16/37
f 11/16/38 36/55/38 13/20/38
f 15/24/39 13/20/39 38/57/39
f 15/84/40 38/58/40 17/28/40
f 17/28/77 39/59/77 19/33/77
f 19/33/42 40/60/42 21/37/42
f 21/37/43 41/61/43 3/41/43
f 42/85/44 52/50/44 33/62/44
f 33/62/45 43/43/45 34/63/45
f 34/63/46 44/44/46 35/64/46
f 35/64/47 45/45/47 36/66/47
f 37/86/78 36/66/78 47/46/78
f 37/86/49 47/46/49 38/67/49
f 39/87/50 38/67/50 49/48/50
f 39/87/51 49/48/51 40/69/51
f 41/70/52 40/69/52 51/49/52
f 42/85/79 41/70/79 52/50/79
f 53/3/80 54/2/80 63/72/80
f 54/2/55 55/9/55 64/71/55
f 55/9/56 56/13/56 65/73/56
f 56/13/57 57/17/57 66/74/57
f 57/17/81 58/21/81 67/75/81
f 58/21/59 59/25/59 68/76/59
f 59/30/82 60/29/82 69/79/82
f 60/29/61 61/34/61 70/78/61
f 61/34/62 62/38/62 71/80/62
f 62/38/83 53/3/83 72/81/83
